<svg xmlns="http://www.w3.org/2000/svg" xmlns:xlink="http://www.w3.org/1999/xlink" width="318" zoomAndPan="magnify" viewBox="0 0 238.5 95.999999" height="128" preserveAspectRatio="xMidYMid meet" version="1.0"><defs><g/></defs><g fill="#ff3131" fill-opacity="1"><g transform="translate(15.137647, 49.244185)"><g><path d="M 9.453125 0.546875 C 6.253906 0.546875 3.554688 -0.0390625 1.359375 -1.21875 L 3.0625 -6.5 C 5.394531 -5.65625 7.476562 -5.234375 9.3125 -5.234375 C 10.3125 -5.234375 11.039062 -5.351562 11.5 -5.59375 C 11.96875 -5.832031 12.203125 -6.1875 12.203125 -6.65625 C 12.203125 -6.976562 12.078125 -7.257812 11.828125 -7.5 C 11.578125 -7.738281 11.078125 -8.003906 10.328125 -8.296875 C 9.585938 -8.585938 8.46875 -8.953125 6.96875 -9.390625 C 5.132812 -9.929688 3.707031 -10.816406 2.6875 -12.046875 C 1.664062 -13.285156 1.15625 -14.707031 1.15625 -16.3125 C 1.15625 -18.8125 1.976562 -20.703125 3.625 -21.984375 C 5.269531 -23.265625 7.484375 -23.90625 10.265625 -23.90625 C 11.710938 -23.90625 13.140625 -23.75 14.546875 -23.4375 C 15.953125 -23.132812 17.203125 -22.6875 18.296875 -22.09375 L 16.453125 -16.96875 C 15.179688 -17.394531 14.078125 -17.703125 13.140625 -17.890625 C 12.203125 -18.085938 11.289062 -18.1875 10.40625 -18.1875 C 8.90625 -18.1875 8.15625 -17.78125 8.15625 -16.96875 C 8.15625 -16.5625 8.398438 -16.210938 8.890625 -15.921875 C 9.378906 -15.640625 10.382812 -15.285156 11.90625 -14.859375 C 14.28125 -14.222656 16.078125 -13.253906 17.296875 -11.953125 C 18.523438 -10.648438 19.140625 -9.09375 19.140625 -7.28125 C 19.140625 -4.757812 18.320312 -2.820312 16.6875 -1.46875 C 15.0625 -0.125 12.648438 0.546875 9.453125 0.546875 Z M 9.453125 0.546875 "/></g></g></g><g fill="#ff3131" fill-opacity="1"><g transform="translate(35.26334, 49.244185)"><g><path d="M 1.703125 -16.796875 L 8.53125 -16.796875 L 8.53125 -13.328125 C 9.300781 -14.660156 10.175781 -15.648438 11.15625 -16.296875 C 12.144531 -16.941406 13.320312 -17.265625 14.6875 -17.265625 C 16.019531 -17.265625 17.179688 -16.929688 18.171875 -16.265625 C 19.160156 -15.597656 19.90625 -14.695312 20.40625 -13.5625 C 21.851562 -16.03125 23.957031 -17.265625 26.71875 -17.265625 C 28.039062 -17.265625 29.191406 -16.910156 30.171875 -16.203125 C 31.160156 -15.503906 31.925781 -14.492188 32.46875 -13.171875 C 33.007812 -11.847656 33.28125 -10.289062 33.28125 -8.5 L 33.28125 0 L 26.109375 0 L 26.109375 -8.5 C 26.109375 -9.65625 25.910156 -10.523438 25.515625 -11.109375 C 25.117188 -11.703125 24.570312 -12 23.875 -12 C 23.101562 -12 22.4375 -11.671875 21.875 -11.015625 C 21.320312 -10.359375 21.046875 -9.566406 21.046875 -8.640625 L 21.046875 0 L 13.9375 0 L 13.9375 -8.5 C 13.9375 -9.65625 13.738281 -10.523438 13.34375 -11.109375 C 12.945312 -11.703125 12.382812 -12 11.65625 -12 C 10.882812 -12 10.226562 -11.671875 9.6875 -11.015625 C 9.144531 -10.359375 8.875 -9.566406 8.875 -8.640625 L 8.875 0 L 1.703125 0 Z M 1.703125 -16.796875 "/></g></g></g><g fill="#ff3131" fill-opacity="1"><g transform="translate(70.143339, 49.244185)"><g><path d="M 9.21875 0.265625 C 7.738281 0.265625 6.359375 -0.125 5.078125 -0.90625 C 3.796875 -1.6875 2.769531 -2.75 2 -4.09375 C 1.226562 -5.445312 0.84375 -6.953125 0.84375 -8.609375 C 0.84375 -10.234375 1.226562 -11.707031 2 -13.03125 C 2.769531 -14.363281 3.800781 -15.398438 5.09375 -16.140625 C 6.382812 -16.890625 7.757812 -17.265625 9.21875 -17.265625 C 10.394531 -17.265625 11.488281 -16.9375 12.5 -16.28125 C 13.507812 -15.625 14.273438 -14.640625 14.796875 -13.328125 L 14.796875 -17.265625 L 21.9375 -17.265625 L 21.9375 0 L 14.796875 0 L 14.796875 -3.15625 C 13.660156 -0.875 11.800781 0.265625 9.21875 0.265625 Z M 11.421875 -5.09375 C 12.328125 -5.09375 13.101562 -5.414062 13.75 -6.0625 C 14.394531 -6.707031 14.742188 -7.472656 14.796875 -8.359375 L 14.796875 -8.640625 C 14.742188 -9.546875 14.382812 -10.316406 13.71875 -10.953125 C 13.050781 -11.585938 12.285156 -11.90625 11.421875 -11.90625 C 10.472656 -11.90625 9.660156 -11.566406 8.984375 -10.890625 C 8.316406 -10.222656 7.984375 -9.425781 7.984375 -8.5 C 7.984375 -7.550781 8.320312 -6.742188 9 -6.078125 C 9.6875 -5.421875 10.492188 -5.09375 11.421875 -5.09375 Z M 11.421875 -5.09375 "/></g></g></g><g fill="#ff3131" fill-opacity="1"><g transform="translate(93.804627, 49.244185)"><g><path d="M 1.703125 -16.796875 L 8.875 -16.796875 L 8.875 -13.328125 C 9.394531 -14.660156 10.101562 -15.648438 11 -16.296875 C 11.894531 -16.941406 12.941406 -17.265625 14.140625 -17.265625 L 15.125 -11.734375 C 12.976562 -11.734375 11.398438 -11.5 10.390625 -11.03125 C 9.378906 -10.570312 8.875 -9.84375 8.875 -8.84375 L 8.875 0 L 1.703125 0 Z M 1.703125 -16.796875 "/></g></g></g><g fill="#ff3131" fill-opacity="1"><g transform="translate(108.966892, 49.244185)"><g><path d="M 9.140625 0.265625 C 7.148438 0.265625 5.597656 -0.300781 4.484375 -1.4375 C 3.378906 -2.582031 2.828125 -4.164062 2.828125 -6.1875 L 2.828125 -12.8125 L 0.640625 -12.8125 L 0.640625 -17.03125 L 3.328125 -17.03125 L 6.5 -23.453125 L 9.921875 -23.453125 L 9.921875 -17.03125 L 13.875 -17.03125 L 13.875 -12.8125 L 9.921875 -12.8125 L 9.921875 -7.03125 C 9.921875 -6.46875 10.101562 -6.023438 10.46875 -5.703125 C 10.832031 -5.390625 11.34375 -5.234375 12 -5.234375 C 12.613281 -5.234375 13.171875 -5.367188 13.671875 -5.640625 L 13.9375 -0.890625 C 13.375 -0.546875 12.644531 -0.265625 11.75 -0.046875 C 10.851562 0.160156 9.984375 0.265625 9.140625 0.265625 Z M 9.140625 0.265625 "/></g></g></g><g fill="#ff3131" fill-opacity="1"><g transform="translate(123.755198, 49.244185)"><g/></g></g><g fill="#ff3131" fill-opacity="1"><g transform="translate(130.112471, 49.244185)"><g><path d="M 5.84375 -18.21875 L 0.984375 -18.21875 L 0.984375 -23.390625 L 18.625 -23.390625 L 18.625 -18.21875 L 13.765625 -18.21875 L 13.765625 0 L 5.84375 0 Z M 5.84375 -18.21875 "/></g></g></g><g fill="#ff3131" fill-opacity="1"><g transform="translate(149.728227, 49.244185)"><g><path d="M 10.5 0.265625 C 8.625 0.265625 6.953125 -0.109375 5.484375 -0.859375 C 4.023438 -1.617188 2.882812 -2.660156 2.0625 -3.984375 C 1.25 -5.316406 0.84375 -6.820312 0.84375 -8.5 C 0.84375 -10.21875 1.257812 -11.742188 2.09375 -13.078125 C 2.9375 -14.421875 4.070312 -15.453125 5.5 -16.171875 C 6.9375 -16.898438 8.523438 -17.265625 10.265625 -17.265625 C 11.941406 -17.265625 13.375 -16.894531 14.5625 -16.15625 C 15.757812 -15.425781 16.648438 -14.429688 17.234375 -13.171875 C 17.828125 -11.910156 18.125 -10.5 18.125 -8.9375 C 18.125 -8.53125 18.097656 -8.238281 18.046875 -8.0625 L 7.859375 -6.734375 C 8.128906 -5.941406 8.566406 -5.367188 9.171875 -5.015625 C 9.785156 -4.660156 10.59375 -4.484375 11.59375 -4.484375 C 13.132812 -4.484375 14.800781 -4.878906 16.59375 -5.671875 L 17.4375 -1.125 C 15.332031 -0.195312 13.019531 0.265625 10.5 0.265625 Z M 12.859375 -11.015625 C 12.492188 -12.441406 11.628906 -13.15625 10.265625 -13.15625 C 9.453125 -13.15625 8.804688 -12.847656 8.328125 -12.234375 C 7.847656 -11.628906 7.597656 -10.835938 7.578125 -9.859375 Z M 12.859375 -11.015625 "/></g></g></g><g fill="#ff3131" fill-opacity="1"><g transform="translate(168.630066, 49.244185)"><g><path d="M 10.09375 0.265625 C 8.28125 0.265625 6.675781 -0.0976562 5.28125 -0.828125 C 3.894531 -1.566406 2.804688 -2.601562 2.015625 -3.9375 C 1.234375 -5.28125 0.84375 -6.800781 0.84375 -8.5 C 0.84375 -10.132812 1.25 -11.617188 2.0625 -12.953125 C 2.882812 -14.285156 4 -15.335938 5.40625 -16.109375 C 6.8125 -16.878906 8.375 -17.265625 10.09375 -17.265625 C 12.289062 -17.265625 14.023438 -16.8125 15.296875 -15.90625 L 14.65625 -11.390625 C 13.363281 -11.773438 12.296875 -11.96875 11.453125 -11.96875 C 10.367188 -11.96875 9.507812 -11.65625 8.875 -11.03125 C 8.238281 -10.40625 7.921875 -9.5625 7.921875 -8.5 C 7.921875 -7.4375 8.238281 -6.585938 8.875 -5.953125 C 9.507812 -5.316406 10.347656 -5 11.390625 -5 C 12.296875 -5 13.363281 -5.191406 14.59375 -5.578125 L 15.234375 -0.8125 C 14.460938 -0.425781 13.679688 -0.148438 12.890625 0.015625 C 12.097656 0.179688 11.164062 0.265625 10.09375 0.265625 Z M 10.09375 0.265625 "/></g></g></g><g fill="#ff3131" fill-opacity="1"><g transform="translate(184.676227, 49.244185)"><g><path d="M 1.703125 -22.40625 L 8.875 -23.453125 L 8.875 -13.53125 C 9.375 -14.726562 10.125 -15.648438 11.125 -16.296875 C 12.132812 -16.941406 13.359375 -17.265625 14.796875 -17.265625 C 16.960938 -17.265625 18.664062 -16.488281 19.90625 -14.9375 C 21.144531 -13.382812 21.765625 -11.238281 21.765625 -8.5 L 21.765625 0 L 14.625 0 L 14.625 -9.21875 C 14.625 -10.1875 14.410156 -10.929688 13.984375 -11.453125 C 13.566406 -11.972656 12.984375 -12.234375 12.234375 -12.234375 C 11.691406 -12.234375 11.160156 -12.054688 10.640625 -11.703125 C 10.117188 -11.359375 9.691406 -10.859375 9.359375 -10.203125 C 9.035156 -9.546875 8.875 -8.796875 8.875 -7.953125 L 8.875 0 L 1.703125 0 Z M 1.703125 -22.40625 "/></g></g></g><g fill="#ffffff" fill-opacity="1"><g transform="translate(111.599049, 82.783731)"><g><path d="M 7.921875 0.34375 C 6.597656 0.34375 5.488281 0.226562 4.59375 0 C 3.695312 -0.238281 2.742188 -0.617188 1.734375 -1.140625 L 1.734375 -4.234375 C 2.460938 -3.628906 3.351562 -3.144531 4.40625 -2.78125 C 5.457031 -2.414062 6.566406 -2.234375 7.734375 -2.234375 C 8.867188 -2.234375 9.722656 -2.46875 10.296875 -2.9375 C 10.878906 -3.40625 11.171875 -4.066406 11.171875 -4.921875 C 11.171875 -5.503906 11 -5.984375 10.65625 -6.359375 C 10.320312 -6.734375 9.90625 -7.039062 9.40625 -7.28125 C 8.90625 -7.519531 8.195312 -7.804688 7.28125 -8.140625 L 6.65625 -8.375 C 5.632812 -8.726562 4.789062 -9.09375 4.125 -9.46875 C 3.46875 -9.84375 2.914062 -10.375 2.46875 -11.0625 C 2.019531 -11.75 1.796875 -12.632812 1.796875 -13.71875 C 1.796875 -14.613281 2.019531 -15.460938 2.46875 -16.265625 C 2.914062 -17.066406 3.613281 -17.722656 4.5625 -18.234375 C 5.507812 -18.753906 6.703125 -19.015625 8.140625 -19.015625 C 9.191406 -19.015625 10.066406 -18.914062 10.765625 -18.71875 C 11.460938 -18.519531 12.296875 -18.1875 13.265625 -17.71875 L 13.265625 -14.703125 C 12.316406 -15.296875 11.492188 -15.738281 10.796875 -16.03125 C 10.109375 -16.320312 9.289062 -16.46875 8.34375 -16.46875 C 7.238281 -16.46875 6.394531 -16.242188 5.8125 -15.796875 C 5.238281 -15.347656 4.953125 -14.757812 4.953125 -14.03125 C 4.953125 -13.414062 5.109375 -12.914062 5.421875 -12.53125 C 5.742188 -12.144531 6.160156 -11.832031 6.671875 -11.59375 C 7.191406 -11.363281 7.9375 -11.09375 8.90625 -10.78125 C 10.039062 -10.40625 10.984375 -10.015625 11.734375 -9.609375 C 12.492188 -9.210938 13.117188 -8.664062 13.609375 -7.96875 C 14.097656 -7.269531 14.34375 -6.378906 14.34375 -5.296875 C 14.34375 -4.265625 14.113281 -3.320312 13.65625 -2.46875 C 13.195312 -1.625 12.484375 -0.941406 11.515625 -0.421875 C 10.554688 0.0859375 9.359375 0.34375 7.921875 0.34375 Z M 7.921875 0.34375 "/></g></g></g><g fill="#ffffff" fill-opacity="1"><g transform="translate(127.388896, 82.783731)"><g><path d="M 8.09375 0.421875 C 5.851562 0.421875 4.164062 -0.210938 3.03125 -1.484375 C 1.90625 -2.753906 1.34375 -4.601562 1.34375 -7.03125 C 1.34375 -11.9375 3.582031 -14.390625 8.0625 -14.390625 C 10.320312 -14.390625 12.019531 -13.757812 13.15625 -12.5 C 14.300781 -11.238281 14.875 -9.414062 14.875 -7.03125 C 14.875 -4.632812 14.285156 -2.789062 13.109375 -1.5 C 11.929688 -0.21875 10.257812 0.421875 8.09375 0.421875 Z M 8.0625 -2.078125 C 10.632812 -2.078125 11.921875 -3.726562 11.921875 -7.03125 C 11.921875 -8.664062 11.613281 -9.890625 11 -10.703125 C 10.382812 -11.515625 9.40625 -11.921875 8.0625 -11.921875 C 6.695312 -11.921875 5.71875 -11.503906 5.125 -10.671875 C 4.539062 -9.847656 4.25 -8.632812 4.25 -7.03125 C 4.25 -5.425781 4.550781 -4.195312 5.15625 -3.34375 C 5.769531 -2.5 6.738281 -2.078125 8.0625 -2.078125 Z M 8.0625 -2.078125 "/></g></g></g><g fill="#ffffff" fill-opacity="1"><g transform="translate(143.570692, 82.783731)"><g><path d="M 2.078125 0 L 2.078125 -19.375 L 4.984375 -19.375 L 4.984375 0 Z M 2.078125 0 "/></g></g></g><g fill="#ffffff" fill-opacity="1"><g transform="translate(150.625734, 82.783731)"><g><path d="M 8.28125 0.421875 C 6.320312 0.421875 4.796875 -0.0546875 3.703125 -1.015625 C 2.617188 -1.984375 2.078125 -3.390625 2.078125 -5.234375 L 2.078125 -14.0625 L 5.015625 -14.0625 L 5.015625 -5.65625 C 5.015625 -4.457031 5.28125 -3.570312 5.8125 -3 C 6.34375 -2.4375 7.164062 -2.15625 8.28125 -2.15625 C 9.40625 -2.15625 10.234375 -2.4375 10.765625 -3 C 11.296875 -3.570312 11.5625 -4.457031 11.5625 -5.65625 L 11.5625 -14.0625 L 14.390625 -14.0625 L 14.390625 -5.234375 C 14.390625 -3.390625 13.859375 -1.984375 12.796875 -1.015625 C 11.734375 -0.0546875 10.226562 0.421875 8.28125 0.421875 Z M 8.28125 0.421875 "/></g></g></g><g fill="#ffffff" fill-opacity="1"><g transform="translate(167.087486, 82.783731)"><g><path d="M 7.078125 0.359375 C 5.796875 0.359375 4.789062 0.015625 4.0625 -0.671875 C 3.332031 -1.359375 2.96875 -2.335938 2.96875 -3.609375 L 2.96875 -11.625 L 0.703125 -11.625 L 0.703125 -14.0625 L 2.96875 -14.0625 L 2.96875 -17.96875 L 5.984375 -17.96875 L 5.984375 -14.0625 L 9.40625 -14.0625 L 9.40625 -11.625 L 5.984375 -11.625 L 5.984375 -4.203125 C 5.984375 -3.503906 6.101562 -3 6.34375 -2.6875 C 6.59375 -2.382812 7.023438 -2.234375 7.640625 -2.234375 C 7.941406 -2.234375 8.253906 -2.273438 8.578125 -2.359375 C 8.910156 -2.441406 9.1875 -2.550781 9.40625 -2.6875 L 9.40625 -0.078125 C 8.75 0.210938 7.972656 0.359375 7.078125 0.359375 Z M 7.078125 0.359375 "/></g></g></g><g fill="#ffffff" fill-opacity="1"><g transform="translate(177.83802, 82.783731)"><g><path d="M 2.078125 -18.953125 L 5.203125 -18.953125 L 5.203125 -16.296875 L 2.078125 -16.296875 Z M 2.15625 -13.96875 L 5.09375 -13.96875 L 5.125 0 L 2.15625 0 Z M 2.15625 -13.96875 "/></g></g></g><g fill="#ffffff" fill-opacity="1"><g transform="translate(185.117022, 82.783731)"><g><path d="M 8.09375 0.421875 C 5.851562 0.421875 4.164062 -0.210938 3.03125 -1.484375 C 1.90625 -2.753906 1.34375 -4.601562 1.34375 -7.03125 C 1.34375 -11.9375 3.582031 -14.390625 8.0625 -14.390625 C 10.320312 -14.390625 12.019531 -13.757812 13.15625 -12.5 C 14.300781 -11.238281 14.875 -9.414062 14.875 -7.03125 C 14.875 -4.632812 14.285156 -2.789062 13.109375 -1.5 C 11.929688 -0.21875 10.257812 0.421875 8.09375 0.421875 Z M 8.0625 -2.078125 C 10.632812 -2.078125 11.921875 -3.726562 11.921875 -7.03125 C 11.921875 -8.664062 11.613281 -9.890625 11 -10.703125 C 10.382812 -11.515625 9.40625 -11.921875 8.0625 -11.921875 C 6.695312 -11.921875 5.71875 -11.503906 5.125 -10.671875 C 4.539062 -9.847656 4.25 -8.632812 4.25 -7.03125 C 4.25 -5.425781 4.550781 -4.195312 5.15625 -3.34375 C 5.769531 -2.5 6.738281 -2.078125 8.0625 -2.078125 Z M 8.0625 -2.078125 "/></g></g></g><g fill="#ffffff" fill-opacity="1"><g transform="translate(201.298818, 82.783731)"><g><path d="M 2.078125 -12.90625 C 2.910156 -13.332031 3.925781 -13.679688 5.125 -13.953125 C 6.332031 -14.222656 7.488281 -14.359375 8.59375 -14.359375 C 10.550781 -14.359375 12 -13.945312 12.9375 -13.125 C 13.875 -12.3125 14.34375 -11.035156 14.34375 -9.296875 L 14.34375 0 L 11.390625 0 L 11.390625 -8.90625 C 11.390625 -10.863281 10.28125 -11.84375 8.0625 -11.84375 C 7 -11.84375 5.984375 -11.664062 5.015625 -11.3125 L 5.015625 0 L 2.078125 0 Z M 2.078125 -12.90625 "/></g></g></g><g fill="#ffffff" fill-opacity="1"><g transform="translate(217.704575, 82.783731)"><g><path d="M 6.125 0.421875 C 5.195312 0.421875 4.390625 0.328125 3.703125 0.140625 C 3.023438 -0.046875 2.296875 -0.328125 1.515625 -0.703125 L 1.515625 -3.46875 C 2.347656 -2.945312 3.109375 -2.5625 3.796875 -2.3125 C 4.492188 -2.0625 5.269531 -1.9375 6.125 -1.9375 C 6.9375 -1.9375 7.566406 -2.097656 8.015625 -2.421875 C 8.472656 -2.742188 8.703125 -3.171875 8.703125 -3.703125 C 8.703125 -4.203125 8.515625 -4.570312 8.140625 -4.8125 C 7.773438 -5.0625 7.195312 -5.320312 6.40625 -5.59375 L 5.765625 -5.828125 C 4.460938 -6.140625 3.421875 -6.59375 2.640625 -7.1875 C 1.867188 -7.789062 1.484375 -8.726562 1.484375 -10 C 1.484375 -10.988281 1.742188 -11.804688 2.265625 -12.453125 C 2.785156 -13.109375 3.441406 -13.585938 4.234375 -13.890625 C 5.035156 -14.191406 5.875 -14.34375 6.75 -14.34375 C 7.644531 -14.320312 8.398438 -14.210938 9.015625 -14.015625 C 9.628906 -13.816406 10.300781 -13.53125 11.03125 -13.15625 L 11.03125 -10.640625 C 10.0625 -11.140625 9.328125 -11.484375 8.828125 -11.671875 C 8.335938 -11.859375 7.75 -11.953125 7.0625 -11.953125 C 6.289062 -11.953125 5.671875 -11.8125 5.203125 -11.53125 C 4.742188 -11.25 4.515625 -10.859375 4.515625 -10.359375 C 4.515625 -9.765625 4.742188 -9.332031 5.203125 -9.0625 C 5.671875 -8.789062 6.398438 -8.515625 7.390625 -8.234375 C 8.328125 -7.972656 9.066406 -7.71875 9.609375 -7.46875 C 10.160156 -7.226562 10.644531 -6.832031 11.0625 -6.28125 C 11.488281 -5.726562 11.703125 -4.976562 11.703125 -4.03125 C 11.679688 -2.539062 11.132812 -1.425781 10.0625 -0.6875 C 8.988281 0.0507812 7.675781 0.421875 6.125 0.421875 Z M 6.125 0.421875 "/></g></g></g></svg>