<svg xmlns="http://www.w3.org/2000/svg" xmlns:xlink="http://www.w3.org/1999/xlink" width="318" zoomAndPan="magnify" viewBox="0 0 238.5 95.999999" height="128" preserveAspectRatio="xMidYMid meet" version="1.0"><defs><g/></defs><g fill="#ff3131" fill-opacity="1"><g transform="translate(15.105978, 49.141375)"><g><path d="M 9.4375 0.546875 C 6.238281 0.546875 3.546875 -0.0390625 1.359375 -1.21875 L 3.046875 -6.484375 C 5.378906 -5.640625 7.460938 -5.21875 9.296875 -5.21875 C 10.285156 -5.21875 11.007812 -5.335938 11.46875 -5.578125 C 11.9375 -5.816406 12.171875 -6.175781 12.171875 -6.65625 C 12.171875 -6.96875 12.046875 -7.242188 11.796875 -7.484375 C 11.554688 -7.722656 11.0625 -7.988281 10.3125 -8.28125 C 9.5625 -8.570312 8.441406 -8.929688 6.953125 -9.359375 C 5.117188 -9.898438 3.691406 -10.785156 2.671875 -12.015625 C 1.660156 -13.253906 1.15625 -14.675781 1.15625 -16.28125 C 1.15625 -18.769531 1.972656 -20.648438 3.609375 -21.921875 C 5.253906 -23.203125 7.46875 -23.84375 10.25 -23.84375 C 11.695312 -23.84375 13.117188 -23.691406 14.515625 -23.390625 C 15.921875 -23.085938 17.164062 -22.640625 18.25 -22.046875 L 16.421875 -16.921875 C 15.148438 -17.359375 14.046875 -17.671875 13.109375 -17.859375 C 12.171875 -18.046875 11.257812 -18.140625 10.375 -18.140625 C 8.882812 -18.140625 8.140625 -17.734375 8.140625 -16.921875 C 8.140625 -16.515625 8.378906 -16.171875 8.859375 -15.890625 C 9.347656 -15.609375 10.351562 -15.253906 11.875 -14.828125 C 14.25 -14.191406 16.046875 -13.222656 17.265625 -11.921875 C 18.484375 -10.617188 19.09375 -9.066406 19.09375 -7.265625 C 19.09375 -4.753906 18.28125 -2.820312 16.65625 -1.46875 C 15.03125 -0.125 12.625 0.546875 9.4375 0.546875 Z M 9.4375 0.546875 "/></g></g></g><g fill="#ff3131" fill-opacity="1"><g transform="translate(35.189568, 49.141375)"><g><path d="M 1.703125 -16.75 L 8.515625 -16.75 L 8.515625 -13.296875 C 9.285156 -14.628906 10.160156 -15.617188 11.140625 -16.265625 C 12.128906 -16.910156 13.300781 -17.234375 14.65625 -17.234375 C 15.988281 -17.234375 17.144531 -16.898438 18.125 -16.234375 C 19.113281 -15.566406 19.859375 -14.664062 20.359375 -13.53125 C 21.804688 -16 23.90625 -17.234375 26.65625 -17.234375 C 27.96875 -17.234375 29.113281 -16.878906 30.09375 -16.171875 C 31.082031 -15.472656 31.847656 -14.460938 32.390625 -13.140625 C 32.929688 -11.816406 33.203125 -10.265625 33.203125 -8.484375 L 33.203125 0 L 26.046875 0 L 26.046875 -8.484375 C 26.046875 -9.628906 25.847656 -10.492188 25.453125 -11.078125 C 25.054688 -11.671875 24.507812 -11.96875 23.8125 -11.96875 C 23.039062 -11.96875 22.378906 -11.640625 21.828125 -10.984375 C 21.273438 -10.328125 21 -9.535156 21 -8.609375 L 21 0 L 13.90625 0 L 13.90625 -8.484375 C 13.90625 -9.628906 13.707031 -10.492188 13.3125 -11.078125 C 12.914062 -11.671875 12.359375 -11.96875 11.640625 -11.96875 C 10.867188 -11.96875 10.210938 -11.640625 9.671875 -10.984375 C 9.128906 -10.328125 8.859375 -9.535156 8.859375 -8.609375 L 8.859375 0 L 1.703125 0 Z M 1.703125 -16.75 "/></g></g></g><g fill="#ff3131" fill-opacity="1"><g transform="translate(69.996597, 49.141375)"><g><path d="M 9.1875 0.265625 C 7.71875 0.265625 6.34375 -0.117188 5.0625 -0.890625 C 3.789062 -1.671875 2.769531 -2.734375 2 -4.078125 C 1.226562 -5.429688 0.84375 -6.929688 0.84375 -8.578125 C 0.84375 -10.210938 1.226562 -11.691406 2 -13.015625 C 2.769531 -14.335938 3.796875 -15.367188 5.078125 -16.109375 C 6.367188 -16.859375 7.738281 -17.234375 9.1875 -17.234375 C 10.363281 -17.234375 11.453125 -16.90625 12.453125 -16.25 C 13.460938 -15.59375 14.226562 -14.609375 14.75 -13.296875 L 14.75 -17.234375 L 21.875 -17.234375 L 21.875 0 L 14.75 0 L 14.75 -3.15625 C 13.625 -0.875 11.769531 0.265625 9.1875 0.265625 Z M 11.390625 -5.09375 C 12.296875 -5.09375 13.070312 -5.410156 13.71875 -6.046875 C 14.363281 -6.691406 14.707031 -7.457031 14.75 -8.34375 L 14.75 -8.609375 C 14.707031 -9.515625 14.351562 -10.285156 13.6875 -10.921875 C 13.019531 -11.554688 12.253906 -11.875 11.390625 -11.875 C 10.441406 -11.875 9.632812 -11.539062 8.96875 -10.875 C 8.300781 -10.207031 7.96875 -9.410156 7.96875 -8.484375 C 7.96875 -7.535156 8.304688 -6.734375 8.984375 -6.078125 C 9.660156 -5.421875 10.460938 -5.09375 11.390625 -5.09375 Z M 11.390625 -5.09375 "/></g></g></g><g fill="#ff3131" fill-opacity="1"><g transform="translate(93.608384, 49.141375)"><g><path d="M 1.703125 -16.75 L 8.859375 -16.75 L 8.859375 -13.296875 C 9.378906 -14.628906 10.082031 -15.617188 10.96875 -16.265625 C 11.863281 -16.910156 12.910156 -17.234375 14.109375 -17.234375 L 15.09375 -11.703125 C 12.945312 -11.703125 11.367188 -11.46875 10.359375 -11 C 9.359375 -10.539062 8.859375 -9.8125 8.859375 -8.8125 L 8.859375 0 L 1.703125 0 Z M 1.703125 -16.75 "/></g></g></g><g fill="#ff3131" fill-opacity="1"><g transform="translate(108.738929, 49.141375)"><g><path d="M 9.125 0.265625 C 7.132812 0.265625 5.582031 -0.300781 4.46875 -1.4375 C 3.363281 -2.582031 2.8125 -4.160156 2.8125 -6.171875 L 2.8125 -12.78125 L 0.640625 -12.78125 L 0.640625 -17 L 3.328125 -17 L 6.484375 -23.40625 L 9.90625 -23.40625 L 9.90625 -17 L 13.84375 -17 L 13.84375 -12.78125 L 9.90625 -12.78125 L 9.90625 -7.015625 C 9.90625 -6.453125 10.082031 -6.007812 10.4375 -5.6875 C 10.800781 -5.375 11.3125 -5.21875 11.96875 -5.21875 C 12.582031 -5.21875 13.140625 -5.351562 13.640625 -5.625 L 13.90625 -0.875 C 13.34375 -0.539062 12.613281 -0.265625 11.71875 -0.046875 C 10.820312 0.160156 9.957031 0.265625 9.125 0.265625 Z M 9.125 0.265625 "/></g></g></g><g fill="#ff3131" fill-opacity="1"><g transform="translate(123.496298, 49.141375)"><g/></g></g><g fill="#ff3131" fill-opacity="1"><g transform="translate(129.840271, 49.141375)"><g><path d="M 5.828125 -18.1875 L 0.984375 -18.1875 L 0.984375 -23.34375 L 18.59375 -23.34375 L 18.59375 -18.1875 L 13.734375 -18.1875 L 13.734375 0 L 5.828125 0 Z M 5.828125 -18.1875 "/></g></g></g><g fill="#ff3131" fill-opacity="1"><g transform="translate(149.41499, 49.141375)"><g><path d="M 10.484375 0.265625 C 8.609375 0.265625 6.941406 -0.109375 5.484375 -0.859375 C 4.023438 -1.617188 2.882812 -2.660156 2.0625 -3.984375 C 1.25 -5.304688 0.84375 -6.804688 0.84375 -8.484375 C 0.84375 -10.203125 1.257812 -11.726562 2.09375 -13.0625 C 2.9375 -14.394531 4.066406 -15.421875 5.484375 -16.140625 C 6.910156 -16.867188 8.5 -17.234375 10.25 -17.234375 C 11.914062 -17.234375 13.34375 -16.863281 14.53125 -16.125 C 15.71875 -15.394531 16.601562 -14.398438 17.1875 -13.140625 C 17.78125 -11.890625 18.078125 -10.484375 18.078125 -8.921875 C 18.078125 -8.515625 18.054688 -8.222656 18.015625 -8.046875 L 7.84375 -6.71875 C 8.113281 -5.925781 8.550781 -5.351562 9.15625 -5 C 9.769531 -4.65625 10.570312 -4.484375 11.5625 -4.484375 C 13.101562 -4.484375 14.765625 -4.878906 16.546875 -5.671875 L 17.40625 -1.125 C 15.300781 -0.195312 12.992188 0.265625 10.484375 0.265625 Z M 12.828125 -10.984375 C 12.460938 -12.410156 11.601562 -13.125 10.25 -13.125 C 9.425781 -13.125 8.773438 -12.816406 8.296875 -12.203125 C 7.828125 -11.597656 7.582031 -10.8125 7.5625 -9.84375 Z M 12.828125 -10.984375 "/></g></g></g><g fill="#ff3131" fill-opacity="1"><g transform="translate(168.277286, 49.141375)"><g><path d="M 10.078125 0.265625 C 8.265625 0.265625 6.660156 -0.0976562 5.265625 -0.828125 C 3.878906 -1.566406 2.796875 -2.601562 2.015625 -3.9375 C 1.234375 -5.269531 0.84375 -6.785156 0.84375 -8.484375 C 0.84375 -10.109375 1.25 -11.585938 2.0625 -12.921875 C 2.882812 -14.253906 3.992188 -15.304688 5.390625 -16.078125 C 6.796875 -16.847656 8.359375 -17.234375 10.078125 -17.234375 C 12.265625 -17.234375 13.992188 -16.78125 15.265625 -15.875 L 14.625 -11.359375 C 13.332031 -11.742188 12.269531 -11.9375 11.4375 -11.9375 C 10.34375 -11.9375 9.476562 -11.625 8.84375 -11 C 8.21875 -10.382812 7.90625 -9.546875 7.90625 -8.484375 C 7.90625 -7.421875 8.21875 -6.570312 8.84375 -5.9375 C 9.476562 -5.300781 10.316406 -4.984375 11.359375 -4.984375 C 12.265625 -4.984375 13.328125 -5.175781 14.546875 -5.5625 L 15.203125 -0.8125 C 14.429688 -0.425781 13.648438 -0.148438 12.859375 0.015625 C 12.066406 0.179688 11.140625 0.265625 10.078125 0.265625 Z M 10.078125 0.265625 "/></g></g></g><g fill="#ff3131" fill-opacity="1"><g transform="translate(184.289878, 49.141375)"><g><path d="M 1.703125 -22.359375 L 8.859375 -23.40625 L 8.859375 -13.5 C 9.347656 -14.695312 10.097656 -15.617188 11.109375 -16.265625 C 12.117188 -16.910156 13.332031 -17.234375 14.75 -17.234375 C 16.925781 -17.234375 18.628906 -16.457031 19.859375 -14.90625 C 21.085938 -13.351562 21.703125 -11.210938 21.703125 -8.484375 L 21.703125 0 L 14.59375 0 L 14.59375 -9.1875 C 14.59375 -10.164062 14.378906 -10.914062 13.953125 -11.4375 C 13.535156 -11.957031 12.957031 -12.21875 12.21875 -12.21875 C 11.664062 -12.21875 11.128906 -12.039062 10.609375 -11.6875 C 10.097656 -11.332031 9.675781 -10.828125 9.34375 -10.171875 C 9.019531 -9.515625 8.859375 -8.769531 8.859375 -7.9375 L 8.859375 0 L 1.703125 0 Z M 1.703125 -22.359375 "/></g></g></g><g fill="#000000" fill-opacity="1"><g transform="translate(111.365579, 82.610756)"><g><path d="M 7.90625 0.328125 C 6.582031 0.328125 5.472656 0.210938 4.578125 -0.015625 C 3.679688 -0.242188 2.734375 -0.617188 1.734375 -1.140625 L 1.734375 -4.21875 C 2.460938 -3.625 3.351562 -3.144531 4.40625 -2.78125 C 5.457031 -2.414062 6.554688 -2.234375 7.703125 -2.234375 C 8.847656 -2.234375 9.707031 -2.460938 10.28125 -2.921875 C 10.851562 -3.390625 11.140625 -4.054688 11.140625 -4.921875 C 11.140625 -5.492188 10.972656 -5.96875 10.640625 -6.34375 C 10.304688 -6.71875 9.882812 -7.023438 9.375 -7.265625 C 8.875 -7.503906 8.171875 -7.789062 7.265625 -8.125 L 6.65625 -8.359375 C 5.625 -8.710938 4.773438 -9.070312 4.109375 -9.4375 C 3.453125 -9.8125 2.898438 -10.34375 2.453125 -11.03125 C 2.003906 -11.71875 1.78125 -12.601562 1.78125 -13.6875 C 1.78125 -14.582031 2.003906 -15.429688 2.453125 -16.234375 C 2.898438 -17.035156 3.597656 -17.691406 4.546875 -18.203125 C 5.503906 -18.710938 6.695312 -18.96875 8.125 -18.96875 C 9.164062 -18.96875 10.035156 -18.867188 10.734375 -18.671875 C 11.441406 -18.484375 12.28125 -18.15625 13.25 -17.6875 L 13.25 -14.671875 C 12.289062 -15.265625 11.46875 -15.703125 10.78125 -15.984375 C 10.09375 -16.273438 9.273438 -16.421875 8.328125 -16.421875 C 7.222656 -16.421875 6.378906 -16.195312 5.796875 -15.75 C 5.222656 -15.3125 4.9375 -14.726562 4.9375 -14 C 4.9375 -13.382812 5.09375 -12.882812 5.40625 -12.5 C 5.726562 -12.113281 6.144531 -11.804688 6.65625 -11.578125 C 7.175781 -11.347656 7.921875 -11.070312 8.890625 -10.75 C 10.023438 -10.382812 10.96875 -10 11.71875 -9.59375 C 12.46875 -9.195312 13.082031 -8.648438 13.5625 -7.953125 C 14.050781 -7.253906 14.296875 -6.363281 14.296875 -5.28125 C 14.296875 -4.257812 14.066406 -3.320312 13.609375 -2.46875 C 13.160156 -1.625 12.457031 -0.945312 11.5 -0.4375 C 10.539062 0.0703125 9.34375 0.328125 7.90625 0.328125 Z M 7.90625 0.328125 "/></g></g></g><g fill="#000000" fill-opacity="1"><g transform="translate(127.122393, 82.610756)"><g><path d="M 8.078125 0.421875 C 5.835938 0.421875 4.15625 -0.207031 3.03125 -1.46875 C 1.90625 -2.738281 1.34375 -4.585938 1.34375 -7.015625 C 1.34375 -11.910156 3.578125 -14.359375 8.046875 -14.359375 C 10.296875 -14.359375 11.988281 -13.726562 13.125 -12.46875 C 14.257812 -11.21875 14.828125 -9.398438 14.828125 -7.015625 C 14.828125 -4.628906 14.238281 -2.789062 13.0625 -1.5 C 11.894531 -0.21875 10.234375 0.421875 8.078125 0.421875 Z M 8.046875 -2.0625 C 10.617188 -2.0625 11.90625 -3.710938 11.90625 -7.015625 C 11.90625 -8.648438 11.597656 -9.875 10.984375 -10.6875 C 10.367188 -11.5 9.390625 -11.90625 8.046875 -11.90625 C 6.679688 -11.90625 5.707031 -11.488281 5.125 -10.65625 C 4.539062 -9.832031 4.25 -8.617188 4.25 -7.015625 C 4.25 -5.410156 4.550781 -4.179688 5.15625 -3.328125 C 5.757812 -2.484375 6.722656 -2.0625 8.046875 -2.0625 Z M 8.046875 -2.0625 "/></g></g></g><g fill="#000000" fill-opacity="1"><g transform="translate(143.270336, 82.610756)"><g><path d="M 2.0625 0 L 2.0625 -19.328125 L 4.96875 -19.328125 L 4.96875 0 Z M 2.0625 0 "/></g></g></g><g fill="#000000" fill-opacity="1"><g transform="translate(150.310619, 82.610756)"><g><path d="M 8.265625 0.421875 C 6.316406 0.421875 4.796875 -0.0546875 3.703125 -1.015625 C 2.609375 -1.972656 2.0625 -3.375 2.0625 -5.21875 L 2.0625 -14.03125 L 5 -14.03125 L 5 -5.640625 C 5 -4.453125 5.265625 -3.570312 5.796875 -3 C 6.328125 -2.4375 7.148438 -2.15625 8.265625 -2.15625 C 9.390625 -2.15625 10.210938 -2.4375 10.734375 -3 C 11.265625 -3.570312 11.53125 -4.453125 11.53125 -5.640625 L 11.53125 -14.03125 L 14.359375 -14.03125 L 14.359375 -5.21875 C 14.359375 -3.375 13.828125 -1.972656 12.765625 -1.015625 C 11.703125 -0.0546875 10.203125 0.421875 8.265625 0.421875 Z M 8.265625 0.421875 "/></g></g></g><g fill="#000000" fill-opacity="1"><g transform="translate(166.737933, 82.610756)"><g><path d="M 7.0625 0.359375 C 5.78125 0.359375 4.773438 0.015625 4.046875 -0.671875 C 3.328125 -1.359375 2.96875 -2.335938 2.96875 -3.609375 L 2.96875 -11.59375 L 0.703125 -11.59375 L 0.703125 -14.03125 L 2.96875 -14.03125 L 2.96875 -17.9375 L 5.984375 -17.9375 L 5.984375 -14.03125 L 9.390625 -14.03125 L 9.390625 -11.59375 L 5.984375 -11.59375 L 5.984375 -4.1875 C 5.984375 -3.5 6.101562 -3 6.34375 -2.6875 C 6.582031 -2.382812 7.007812 -2.234375 7.625 -2.234375 C 7.925781 -2.234375 8.238281 -2.273438 8.5625 -2.359375 C 8.882812 -2.441406 9.160156 -2.550781 9.390625 -2.6875 L 9.390625 -0.078125 C 8.734375 0.210938 7.957031 0.359375 7.0625 0.359375 Z M 7.0625 0.359375 "/></g></g></g><g fill="#000000" fill-opacity="1"><g transform="translate(177.465976, 82.610756)"><g><path d="M 2.0625 -18.90625 L 5.203125 -18.90625 L 5.203125 -16.265625 L 2.0625 -16.265625 Z M 2.15625 -13.9375 L 5.078125 -13.9375 L 5.109375 0 L 2.15625 0 Z M 2.15625 -13.9375 "/></g></g></g><g fill="#000000" fill-opacity="1"><g transform="translate(184.729751, 82.610756)"><g><path d="M 8.078125 0.421875 C 5.835938 0.421875 4.15625 -0.207031 3.03125 -1.46875 C 1.90625 -2.738281 1.34375 -4.585938 1.34375 -7.015625 C 1.34375 -11.910156 3.578125 -14.359375 8.046875 -14.359375 C 10.296875 -14.359375 11.988281 -13.726562 13.125 -12.46875 C 14.257812 -11.21875 14.828125 -9.398438 14.828125 -7.015625 C 14.828125 -4.628906 14.238281 -2.789062 13.0625 -1.5 C 11.894531 -0.21875 10.234375 0.421875 8.078125 0.421875 Z M 8.046875 -2.0625 C 10.617188 -2.0625 11.90625 -3.710938 11.90625 -7.015625 C 11.90625 -8.648438 11.597656 -9.875 10.984375 -10.6875 C 10.367188 -11.5 9.390625 -11.90625 8.046875 -11.90625 C 6.679688 -11.90625 5.707031 -11.488281 5.125 -10.65625 C 4.539062 -9.832031 4.25 -8.617188 4.25 -7.015625 C 4.25 -5.410156 4.550781 -4.179688 5.15625 -3.328125 C 5.757812 -2.484375 6.722656 -2.0625 8.046875 -2.0625 Z M 8.046875 -2.0625 "/></g></g></g><g fill="#000000" fill-opacity="1"><g transform="translate(200.877694, 82.610756)"><g><path d="M 2.0625 -12.875 C 2.90625 -13.300781 3.925781 -13.648438 5.125 -13.921875 C 6.320312 -14.191406 7.472656 -14.328125 8.578125 -14.328125 C 10.535156 -14.328125 11.976562 -13.914062 12.90625 -13.09375 C 13.832031 -12.28125 14.296875 -11.007812 14.296875 -9.28125 L 14.296875 0 L 11.375 0 L 11.375 -8.890625 C 11.375 -10.835938 10.265625 -11.8125 8.046875 -11.8125 C 6.984375 -11.8125 5.96875 -11.632812 5 -11.28125 L 5 0 L 2.0625 0 Z M 2.0625 -12.875 "/></g></g></g><g fill="#000000" fill-opacity="1"><g transform="translate(217.249129, 82.610756)"><g><path d="M 6.125 0.421875 C 5.1875 0.421875 4.378906 0.328125 3.703125 0.140625 C 3.023438 -0.046875 2.296875 -0.328125 1.515625 -0.703125 L 1.515625 -3.46875 C 2.347656 -2.945312 3.109375 -2.554688 3.796875 -2.296875 C 4.484375 -2.046875 5.257812 -1.921875 6.125 -1.921875 C 6.914062 -1.921875 7.539062 -2.082031 8 -2.40625 C 8.457031 -2.738281 8.6875 -3.164062 8.6875 -3.6875 C 8.6875 -4.1875 8.5 -4.554688 8.125 -4.796875 C 7.757812 -5.046875 7.179688 -5.3125 6.390625 -5.59375 L 5.75 -5.8125 C 4.445312 -6.125 3.410156 -6.578125 2.640625 -7.171875 C 1.867188 -7.773438 1.484375 -8.707031 1.484375 -9.96875 C 1.484375 -10.957031 1.742188 -11.773438 2.265625 -12.421875 C 2.785156 -13.078125 3.441406 -13.550781 4.234375 -13.84375 C 5.023438 -14.144531 5.859375 -14.296875 6.734375 -14.296875 C 7.628906 -14.285156 8.382812 -14.179688 9 -13.984375 C 9.613281 -13.785156 10.28125 -13.5 11 -13.125 L 11 -10.609375 C 10.03125 -11.117188 9.300781 -11.460938 8.8125 -11.640625 C 8.320312 -11.828125 7.734375 -11.921875 7.046875 -11.921875 C 6.273438 -11.921875 5.65625 -11.78125 5.1875 -11.5 C 4.726562 -11.226562 4.5 -10.84375 4.5 -10.34375 C 4.5 -9.738281 4.726562 -9.300781 5.1875 -9.03125 C 5.65625 -8.757812 6.382812 -8.488281 7.375 -8.21875 C 8.300781 -7.957031 9.039062 -7.703125 9.59375 -7.453125 C 10.144531 -7.210938 10.628906 -6.816406 11.046875 -6.265625 C 11.460938 -5.722656 11.671875 -4.972656 11.671875 -4.015625 C 11.660156 -2.523438 11.117188 -1.410156 10.046875 -0.671875 C 8.972656 0.0546875 7.664062 0.421875 6.125 0.421875 Z M 6.125 0.421875 "/></g></g></g></svg>